<?xml version="1.0" standalone="no"?>
<!DOCTYPE svg PUBLIC "-//W3C//DTD SVG 20010904//EN"
 "http://www.w3.org/TR/2001/REC-SVG-20010904/DTD/svg10.dtd">
<svg version="1.0" xmlns="http://www.w3.org/2000/svg"
 width="700.000000pt" height="700.000000pt" viewBox="0 0 700.000000 700.000000"
 preserveAspectRatio="xMidYMid meet">
<metadata>
Created by potrace 1.14, written by Peter Selinger 2001-2017
</metadata>
<g transform="translate(0.000000,700.000000) scale(0.100000,-0.100000)"
fill="#000000" stroke="none">
<path d="M3378 6415 c-2 -1 -48 -5 -103 -9 -55 -3 -120 -9 -145 -12 -45 -6
-278 -48 -315 -58 -410 -103 -772 -278 -1105 -535 -224 -173 -453 -416 -621
-661 -241 -350 -429 -835 -475 -1225 -4 -27 -8 -52 -9 -55 -8 -13 -19 -227
-19 -360 0 -225 11 -345 50 -545 155 -815 649 -1523 1360 -1953 380 -229 828
-374 1262 -409 154 -12 564 -4 591 11 3 2 33 6 66 10 33 3 114 18 180 31 160
34 146 30 260 66 849 266 1528 893 1855 1713 91 229 144 432 184 706 26 176
26 538 1 730 -55 409 -190 799 -395 1140 -167 278 -403 553 -640 745 -52 42
-104 84 -115 93 -55 44 -263 176 -364 231 -346 185 -717 297 -1121 336 -64 7
-377 15 -382 10z m297 -590 c88 -5 186 -17 235 -29 14 -3 36 -8 50 -10 273
-45 632 -200 890 -385 558 -399 905 -1004 975 -1701 7 -69 7 -327 0 -395 -11
-114 -19 -168 -36 -252 -6 -29 -10 -54 -10 -55 1 -2 -8 -37 -20 -78 -11 -41
-22 -82 -24 -90 -14 -60 -82 -233 -136 -346 -154 -321 -404 -623 -709 -857
-82 -63 -263 -173 -360 -219 -138 -66 -172 -80 -286 -117 -578 -194 -1183
-159 -1738 99 -131 61 -346 193 -433 267 -12 10 -37 29 -55 43 -53 39 -280
266 -318 318 -19 26 -40 53 -47 60 -29 31 -126 177 -182 275 -142 247 -256
589 -286 857 -3 30 -8 73 -11 95 -5 46 -5 336 0 380 2 17 7 62 11 100 11 111
53 297 96 429 119 368 295 653 574 931 228 229 447 378 731 500 101 43 303
111 359 121 17 2 44 9 60 14 17 5 46 11 65 14 19 2 51 7 70 10 61 11 112 16
215 22 55 4 101 7 102 8 3 3 105 -1 218 -9z"/>
<path d="M4770 4949 c-179 -83 -376 -175 -438 -205 -63 -30 -115 -54 -118 -54
-2 0 -46 -20 -98 -45 -52 -25 -123 -58 -158 -74 -71 -32 -341 -158 -433 -201
-33 -16 -91 -43 -130 -60 -82 -37 -158 -73 -310 -144 -60 -29 -124 -58 -142
-66 -22 -10 -38 -28 -54 -65 -12 -27 -41 -90 -65 -140 -23 -49 -86 -184 -139
-300 -53 -115 -112 -241 -130 -280 -18 -38 -75 -162 -128 -275 -52 -113 -114
-245 -137 -295 -23 -49 -52 -112 -65 -140 -30 -67 -76 -166 -141 -303 -30 -63
-54 -115 -54 -117 0 -2 -29 -65 -65 -140 -36 -76 -64 -139 -63 -141 2 -1 17 3
33 11 17 8 125 57 240 110 116 54 246 114 290 135 44 21 109 51 145 68 69 31
141 65 285 132 50 24 113 53 140 65 28 13 91 42 140 65 50 23 117 55 150 70
33 15 125 58 205 95 80 37 170 79 200 93 30 13 98 45 150 69 52 25 118 56 146
69 28 13 55 29 61 36 5 7 46 92 91 188 44 96 102 220 127 275 26 55 58 125 72
155 14 30 57 123 96 205 38 83 82 178 98 213 51 110 86 185 129 277 38 81 122
262 195 420 15 33 54 115 86 183 33 68 59 125 59 128 0 2 13 32 30 66 16 34
29 63 27 64 -2 2 -149 -64 -327 -147z m-1135 -1159 c63 -31 131 -98 158 -158
31 -69 30 -199 -1 -265 -30 -63 -99 -132 -160 -159 -68 -32 -199 -32 -263 0
-70 34 -122 84 -154 148 -26 52 -30 70 -30 144 0 70 4 94 24 135 41 82 112
142 211 178 8 3 49 4 90 3 56 -1 88 -8 125 -26z"/>
</g>
</svg>
